<?xml version="1.0" encoding="UTF-8"?>
<svg xmlns="http://www.w3.org/2000/svg" id="Groupe_5693" width="314.505" height="91.733" viewBox="0 0 314.505 91.733">
  <defs>
    <clipPath id="clip-path">
      <path id="Rectangle_1848" fill="#005373" d="M0 0h314.505v91.733H0z"></path>
    </clipPath>
  </defs>
  <g id="Groupe_5692" clip-path="url(#clip-path)" fill="#005373">
    <path id="Tracé_17660" d="M65.719 84.892V62.858c.381-15.375-7.687-26.135-24.469-26.135-8.712 0-16.655 3.33-20.627 11.145 0-10.248-10.5-12.556-20.369-10.12l.129 8.966c7.558-.639 7.173 1.794 7.173 9.993v42.919H21.52V63.754C21.52 53.761 28.438 48 37.151 48c8.326 0 14.732 5.637 14.732 15.374V85.4c0 14.734 9.224 16.27 21.01 13.964v-8.835c-6.02.64-7.174-1.026-7.174-5.637" transform="translate(-.065 -9.422)"></path>
    <path id="Rectangle_1846" transform="translate(92.689 28.453)" d="M0 0h13.965v61.75H0z"></path>
    <path id="Tracé_17661" d="M199.646 87.068a18.777 18.777 0 1 1 18.776-18.777 18.777 18.777 0 0 1-18.776 18.777m0-51.377a32.6 32.6 0 1 0 32.319 32.6 32.46 32.46 0 0 0-32.319-32.6" transform="translate(-42.93 -9.157)"></path>
    <path id="Tracé_17662" d="M404.3 81.309a35.633 35.633 0 0 1-11.53 2.563c-6.662 0-11.018-3.588-11.018-14.093V41.85h21.4v-9.993h-21.4V12.769h-12.3l-1.409 19.088h-12.551v9.1l12.556.9v28.178c0 17.808 8.967 24.6 22.034 24.6a51.083 51.083 0 0 0 15.629-2.82" transform="translate(-91.206 -3.276)"></path>
    <path id="Tracé_17663" d="M292.03 47.1c-.641-9.993-10.633-11.53-19.73-9.48l.129 9.48c6.662-.385 6.662 2.433 6.662 7.943v44.58h13.836V63.88c0-9.994 7.431-14.478 15.757-14.478a22.037 22.037 0 0 1 12.3 3.715l3.458-12.042a23.1 23.1 0 0 0-14.22-4.355c-7.559 0-15.757 3.2-18.191 10.377" transform="translate(-69.862 -9.419)"></path>
    <path id="Tracé_17664" d="M130.635 1.275a8.6 8.6 0 1 0 8.6 8.6 8.6 8.6 0 0 0-8.6-8.6" transform="translate(-31.311 -.327)"></path>
    <path id="Tracé_17665" d="m79.11 3.186-.266-.449L77.28 0l-1.963.772.236.317 1.676 2.1" transform="translate(-19.324)"></path>
    <path id="Tracé_17666" d="M51.727 10.308a2.928 2.928 0 0 1 3.1-2.277 3.022 3.022 0 0 1 2.229.8 2.141 2.141 0 0 1 .562 1.482m-2.359 6.715a8.846 8.846 0 0 0 3.751-.867l.182-.086-.35-1.714-.287.118a8.392 8.392 0 0 1-3.255.7 3.924 3.924 0 0 1-2.89-1.094 2.951 2.951 0 0 1-.805-2.024h7.8l.036-.215a4.961 4.961 0 0 0-.8-4.119 4.82 4.82 0 0 0-3.81-1.477 5.06 5.06 0 0 0-5.337 5.116 5.374 5.374 0 0 0 1.421 4.015 5.959 5.959 0 0 0 4.348 1.649" transform="translate(-12.697 -1.602)"></path>
    <path id="Tracé_17667" d="M79.02 12.688v.452a3.086 3.086 0 0 1-3.135 1.992c-1.289 0-1.943-.459-1.943-1.365 0-1.552 1.771-1.671 2.314-1.671a6.72 6.72 0 0 1 2.764.592m-3.135-2.36c-2.455 0-4.041 1.391-4.041 3.543 0 1.914 1.473 3.151 3.753 3.151a4.955 4.955 0 0 0 3.703-1.477 1.715 1.715 0 0 0 .537 1.076 2.534 2.534 0 0 0 2.132.276l.221-.036-.03-1.56-.286.039a.935.935 0 0 1-.7-.074c-.168-.146-.167-.559-.165-1.079V9.915a3.248 3.248 0 0 0-.87-2.445 5.242 5.242 0 0 0-3.726-1.227 8.247 8.247 0 0 0-3.655.767l-.175.09.381 1.814.309-.179a5.747 5.747 0 0 1 2.892-.682c.863 0 2.869.176 2.869 1.816v1.021a8.11 8.11 0 0 0-3.156-.561" transform="translate(-18.433 -1.602)"></path>
    <path id="Tracé_17668" d="M17.547 3.3a1.242 1.242 0 0 0 1.276-1.29 1.276 1.276 0 0 0-2.551 0 1.242 1.242 0 0 0 1.275 1.29" transform="translate(-4.175 -.195)"></path>
    <path id="Rectangle_1847" transform="translate(12.302 4.826)" d="M0 0h2.119v10.41H0z"></path>
    <path id="Tracé_17669" d="m6 16.984 4.759-9.938.287-.555H8.628L6.934 10.3l-1.41 3.342-1.409-3.284L2.36 6.491H0l.189.444 4.805 10.049" transform="translate(0 -1.665)"></path>
    <path id="Tracé_17670" d="M37.9 7.989a1.012 1.012 0 0 1 .741.117c.159.145.171.482.171.981v7.751h2.1V10.5a2.378 2.378 0 0 1 2.475-2.3 3.6 3.6 0 0 1 1.957.616l.291.184.537-1.86-.146-.106a4.115 4.115 0 0 0-2.476-.79A3.551 3.551 0 0 0 40.694 7.4a1.482 1.482 0 0 0-.474-.718 2.949 2.949 0 0 0-2.409-.269l-.218.037.03 1.565" transform="translate(-9.645 -1.602)"></path>
    <path id="Tracé_17671" d="m27.168 16.984 4.759-9.938.277-.555H29.8L28.1 10.3l-1.4 3.346-1.409-3.287-1.76-3.868h-2.413l.242.444 4.806 10.049" transform="translate(-5.418 -1.665)"></path>
  </g>
</svg>
